<?xml version="1.0" encoding="UTF-8" standalone="no"?>
<!DOCTYPE svg PUBLIC "-//W3C//DTD SVG 1.1//EN"
 "http://www.w3.org/Graphics/SVG/1.1/DTD/svg11.dtd">
<!-- Generated by graphviz version 2.42.4 (0)
 -->
<!-- Title: G Pages: 1 -->
<svg width="3148pt" height="416pt"
 viewBox="0.00 0.00 3147.70 416.20" xmlns="http://www.w3.org/2000/svg" xmlns:xlink="http://www.w3.org/1999/xlink">
<g id="graph0" class="graph" transform="scale(1 1) rotate(0) translate(21.6 394.6)">
<title>G</title>
<polygon fill="#ffffff" stroke="transparent" points="-21.6,21.6 -21.6,-394.6 3126.1,-394.6 3126.1,21.6 -21.6,21.6"/>
<text text-anchor="start" x="8" y="-352.4" font-family="Arial" font-weight="bold" font-size="22.00">Diagnóstico, observabilidade e falha parcial</text>
<text text-anchor="start" x="23.5" y="-339.2" font-family="Arial" font-size="11.00" fill="#667085">Robustez empresarial exige explicar por que cada página seguiu determinada estratégia</text>
<g id="clust1" class="cluster">
<title>cluster_events</title>
<path fill="#ffffff" stroke="#c9d2e3" d="M735,-188.5C735,-188.5 2189,-188.5 2189,-188.5 2195,-188.5 2201,-194.5 2201,-200.5 2201,-200.5 2201,-249.5 2201,-249.5 2201,-255.5 2195,-261.5 2189,-261.5 2189,-261.5 735,-261.5 735,-261.5 729,-261.5 723,-255.5 723,-249.5 723,-249.5 723,-200.5 723,-200.5 723,-194.5 729,-188.5 735,-188.5"/>
<text text-anchor="start" x="731" y="-248.9" font-family="Arial" font-weight="bold" font-size="12.00">Eventos e fatos capturados</text>
</g>
<g id="clust2" class="cluster">
<title>cluster_tools</title>
<path fill="#ffffff" stroke="#7c5cfc" d="M20,-91.5C20,-91.5 698,-91.5 698,-91.5 704,-91.5 710,-97.5 710,-103.5 710,-103.5 710,-254 710,-254 710,-260 704,-266 698,-266 698,-266 20,-266 20,-266 14,-266 8,-260 8,-254 8,-254 8,-103.5 8,-103.5 8,-97.5 14,-91.5 20,-91.5"/>
<text text-anchor="start" x="16" y="-253.4" font-family="Arial" font-weight="bold" font-size="12.00">Ferramentas de diagnóstico do MVP</text>
</g>
<g id="clust3" class="cluster">
<title>cluster_recovery</title>
<path fill="#ffffff" stroke="#f59e0b" d="M2221,-8C2221,-8 2683,-8 2683,-8 2689,-8 2695,-14 2695,-20 2695,-20 2695,-249.5 2695,-249.5 2695,-255.5 2689,-261.5 2683,-261.5 2683,-261.5 2221,-261.5 2221,-261.5 2215,-261.5 2209,-255.5 2209,-249.5 2209,-249.5 2209,-20 2209,-20 2209,-14 2215,-8 2221,-8"/>
<text text-anchor="start" x="2217" y="-248.9" font-family="Arial" font-weight="bold" font-size="12.00">Política de falha parcial</text>
</g>
<!-- pipeline -->
<g id="node1" class="node">
<title>pipeline</title>
<path fill="#eaf1ff" stroke="#2f6bff" stroke-width="1.2" d="M1260,-332C1260,-332 972,-332 972,-332 966,-332 960,-326 960,-320 960,-320 960,-308 960,-308 960,-302 966,-296 972,-296 972,-296 1260,-296 1260,-296 1266,-296 1272,-302 1272,-308 1272,-308 1272,-320 1272,-320 1272,-326 1266,-332 1260,-332"/>
<text text-anchor="start" x="1063.5" y="-317.2" font-family="Arial" font-weight="bold" font-size="11.00" fill="#101828">Processing Pipeline</text>
<text text-anchor="start" x="969" y="-306.2" font-family="Arial" font-size="11.00" fill="#101828">native · complexity · layout · OCR · fusion · tables · assemble</text>
</g>
<!-- strategy -->
<g id="node2" class="node">
<title>strategy</title>
<path fill="#ffffff" stroke="#c9d2e3" stroke-width="1.2" d="M1581,-232.5C1581,-232.5 1277,-232.5 1277,-232.5 1271,-232.5 1265,-226.5 1265,-220.5 1265,-220.5 1265,-208.5 1265,-208.5 1265,-202.5 1271,-196.5 1277,-196.5 1277,-196.5 1581,-196.5 1581,-196.5 1587,-196.5 1593,-202.5 1593,-208.5 1593,-208.5 1593,-220.5 1593,-220.5 1593,-226.5 1587,-232.5 1581,-232.5"/>
<text text-anchor="start" x="1379" y="-217.7" font-family="Arial" font-weight="bold" font-size="11.00" fill="#101828">Strategy Decisions</text>
<text text-anchor="start" x="1274" y="-206.7" font-family="Arial" font-size="11.00" fill="#101828">KEEP_NATIVE / MERGE_OCR / OCR_REGION / OCR_PAGE</text>
</g>
<!-- pipeline&#45;&gt;strategy -->
<g id="edge1" class="edge">
<title>pipeline&#45;&gt;strategy</title>
<path fill="none" stroke="#667085" stroke-width="1.2" d="M1268.5,-295.75C1268.5,-295.75 1268.5,-240.13 1268.5,-240.13"/>
<polygon fill="#667085" stroke="#667085" stroke-width="1.2" points="1271.13,-240.13 1268.5,-232.63 1265.88,-240.13 1271.13,-240.13"/>
</g>
<!-- reasons -->
<g id="node3" class="node">
<title>reasons</title>
<path fill="#ffffff" stroke="#c9d2e3" stroke-width="1.2" d="M1891,-232.5C1891,-232.5 1635,-232.5 1635,-232.5 1629,-232.5 1623,-226.5 1623,-220.5 1623,-220.5 1623,-208.5 1623,-208.5 1623,-202.5 1629,-196.5 1635,-196.5 1635,-196.5 1891,-196.5 1891,-196.5 1897,-196.5 1903,-202.5 1903,-208.5 1903,-208.5 1903,-220.5 1903,-220.5 1903,-226.5 1897,-232.5 1891,-232.5"/>
<text text-anchor="start" x="1740" y="-217.7" font-family="Arial" font-weight="bold" font-size="11.00" fill="#101828">Reasons</text>
<text text-anchor="start" x="1632" y="-206.7" font-family="Arial" font-size="11.00" fill="#101828">garbled · scan · sparse · vector · annotation · duplicate</text>
</g>
<!-- pipeline&#45;&gt;reasons -->
<g id="edge2" class="edge">
<title>pipeline&#45;&gt;reasons</title>
<path fill="none" stroke="#667085" stroke-width="1.2" d="M1272.21,-305C1463.67,-305 1763,-305 1763,-305 1763,-305 1763,-240.31 1763,-240.31"/>
<polygon fill="#667085" stroke="#667085" stroke-width="1.2" points="1765.63,-240.31 1763,-232.81 1760.38,-240.31 1765.63,-240.31"/>
</g>
<!-- conflicts -->
<g id="node4" class="node">
<title>conflicts</title>
<path fill="#fdecec" stroke="#d9534f" stroke-width="1.2" d="M2181,-232.5C2181,-232.5 1945,-232.5 1945,-232.5 1939,-232.5 1933,-226.5 1933,-220.5 1933,-220.5 1933,-208.5 1933,-208.5 1933,-202.5 1939,-196.5 1945,-196.5 1945,-196.5 2181,-196.5 2181,-196.5 2187,-196.5 2193,-202.5 2193,-208.5 2193,-208.5 2193,-220.5 2193,-220.5 2193,-226.5 2187,-232.5 2181,-232.5"/>
<text text-anchor="start" x="2039" y="-217.7" font-family="Arial" font-weight="bold" font-size="11.00" fill="#101828">Conflicts</text>
<text text-anchor="start" x="1942" y="-206.7" font-family="Arial" font-size="11.00" fill="#101828">native vs OCR · numeric disagreement · ambiguity</text>
</g>
<!-- pipeline&#45;&gt;conflicts -->
<g id="edge3" class="edge">
<title>pipeline&#45;&gt;conflicts</title>
<path fill="none" stroke="#667085" stroke-width="1.2" d="M1272.11,-314C1541.01,-314 2063,-314 2063,-314 2063,-314 2063,-240.25 2063,-240.25"/>
<polygon fill="#667085" stroke="#667085" stroke-width="1.2" points="2065.63,-240.25 2063,-232.75 2060.38,-240.25 2065.63,-240.25"/>
</g>
<!-- timings -->
<g id="node5" class="node">
<title>timings</title>
<path fill="#ffffff" stroke="#c9d2e3" stroke-width="1.2" d="M954.5,-232.5C954.5,-232.5 743.5,-232.5 743.5,-232.5 737.5,-232.5 731.5,-226.5 731.5,-220.5 731.5,-220.5 731.5,-208.5 731.5,-208.5 731.5,-202.5 737.5,-196.5 743.5,-196.5 743.5,-196.5 954.5,-196.5 954.5,-196.5 960.5,-196.5 966.5,-202.5 966.5,-208.5 966.5,-208.5 966.5,-220.5 966.5,-220.5 966.5,-226.5 960.5,-232.5 954.5,-232.5"/>
<text text-anchor="start" x="815" y="-217.7" font-family="Arial" font-weight="bold" font-size="11.00" fill="#101828">Performance</text>
<text text-anchor="start" x="740.5" y="-206.7" font-family="Arial" font-size="11.00" fill="#101828">ms/page · model time · render time · memory</text>
</g>
<!-- pipeline&#45;&gt;timings -->
<g id="edge4" class="edge">
<title>pipeline&#45;&gt;timings</title>
<path fill="none" stroke="#667085" stroke-width="1.2" d="M981.75,-295.66C981.75,-266.79 981.75,-214 981.75,-214 981.75,-214 974.02,-214 974.02,-214"/>
<polygon fill="#667085" stroke="#667085" stroke-width="1.2" points="974.02,-211.38 966.52,-214 974.02,-216.63 974.02,-211.38"/>
</g>
<!-- failures -->
<g id="node6" class="node">
<title>failures</title>
<path fill="#fdecec" stroke="#d9534f" stroke-width="1.2" d="M1223,-232.5C1223,-232.5 1009,-232.5 1009,-232.5 1003,-232.5 997,-226.5 997,-220.5 997,-220.5 997,-208.5 997,-208.5 997,-202.5 1003,-196.5 1009,-196.5 1009,-196.5 1223,-196.5 1223,-196.5 1229,-196.5 1235,-202.5 1235,-208.5 1235,-208.5 1235,-220.5 1235,-220.5 1235,-226.5 1229,-232.5 1223,-232.5"/>
<text text-anchor="start" x="1076.5" y="-217.7" font-family="Arial" font-weight="bold" font-size="11.00" fill="#101828">Partial Failures</text>
<text text-anchor="start" x="1006" y="-206.7" font-family="Arial" font-size="11.00" fill="#101828">page/stage exception · timeout · fallback used</text>
</g>
<!-- pipeline&#45;&gt;failures -->
<g id="edge5" class="edge">
<title>pipeline&#45;&gt;failures</title>
<path fill="none" stroke="#667085" stroke-width="1.2" d="M1116,-295.75C1116,-295.75 1116,-240.13 1116,-240.13"/>
<polygon fill="#667085" stroke="#667085" stroke-width="1.2" points="1118.63,-240.13 1116,-232.63 1113.38,-240.13 1118.63,-240.13"/>
</g>
<!-- dump -->
<g id="node7" class="node">
<title>dump</title>
<path fill="#f1ecff" stroke="#7c5cfc" stroke-width="1.2" d="M221.5,-232.5C221.5,-232.5 28.5,-232.5 28.5,-232.5 22.5,-232.5 16.5,-226.5 16.5,-220.5 16.5,-220.5 16.5,-208.5 16.5,-208.5 16.5,-202.5 22.5,-196.5 28.5,-196.5 28.5,-196.5 221.5,-196.5 221.5,-196.5 227.5,-196.5 233.5,-202.5 233.5,-208.5 233.5,-208.5 233.5,-220.5 233.5,-220.5 233.5,-226.5 227.5,-232.5 221.5,-232.5"/>
<text text-anchor="start" x="81.5" y="-217.7" font-family="Arial" font-weight="bold" font-size="11.00" fill="#101828">Character Dump</text>
<text text-anchor="start" x="25.5" y="-206.7" font-family="Arial" font-size="11.00" fill="#101828">char · Unicode · bbox · font · native order</text>
</g>
<!-- pipeline&#45;&gt;dump -->
<g id="edge11" class="edge">
<title>pipeline&#45;&gt;dump</title>
<path fill="none" stroke="#667085" stroke-width="1.2" d="M959.79,-323C680.62,-323 125,-323 125,-323 125,-323 125,-240.41 125,-240.41"/>
<polygon fill="#667085" stroke="#667085" stroke-width="1.2" points="127.63,-240.41 125,-232.91 122.38,-240.41 127.63,-240.41"/>
</g>
<!-- overlay -->
<g id="node8" class="node">
<title>overlay</title>
<path fill="#f1ecff" stroke="#7c5cfc" stroke-width="1.2" d="M480.5,-232.5C480.5,-232.5 275.5,-232.5 275.5,-232.5 269.5,-232.5 263.5,-226.5 263.5,-220.5 263.5,-220.5 263.5,-208.5 263.5,-208.5 263.5,-202.5 269.5,-196.5 275.5,-196.5 275.5,-196.5 480.5,-196.5 480.5,-196.5 486.5,-196.5 492.5,-202.5 492.5,-208.5 492.5,-208.5 492.5,-220.5 492.5,-220.5 492.5,-226.5 486.5,-232.5 480.5,-232.5"/>
<text text-anchor="start" x="313.5" y="-217.7" font-family="Arial" font-weight="bold" font-size="11.00" fill="#101828">Visual Overlay SVG/PNG</text>
<text text-anchor="start" x="272.5" y="-206.7" font-family="Arial" font-size="11.00" fill="#101828">regions · chars · OCR · table cells · conflicts</text>
</g>
<!-- pipeline&#45;&gt;overlay -->
<g id="edge12" class="edge">
<title>pipeline&#45;&gt;overlay</title>
<path fill="none" stroke="#667085" stroke-width="1.2" d="M959.94,-314C743.36,-314 378,-314 378,-314 378,-314 378,-240.25 378,-240.25"/>
<polygon fill="#667085" stroke="#667085" stroke-width="1.2" points="380.63,-240.25 378,-232.75 375.38,-240.25 380.63,-240.25"/>
</g>
<!-- diff -->
<g id="node10" class="node">
<title>diff</title>
<path fill="#f1ecff" stroke="#7c5cfc" stroke-width="1.2" d="M689.5,-237C689.5,-237 534.5,-237 534.5,-237 528.5,-237 522.5,-231 522.5,-225 522.5,-225 522.5,-204 522.5,-204 522.5,-198 528.5,-192 534.5,-192 534.5,-192 689.5,-192 689.5,-192 695.5,-192 701.5,-198 701.5,-204 701.5,-204 701.5,-225 701.5,-225 701.5,-231 695.5,-237 689.5,-237"/>
<text text-anchor="start" x="576.5" y="-223.2" font-family="Arial" font-weight="bold" font-size="11.00" fill="#101828">Extractor Diff</text>
<text text-anchor="start" x="531.5" y="-212.2" font-family="Arial" font-size="11.00" fill="#101828">ours vs MuPDF/PyMuPDF/oracle</text>
<text text-anchor="start" x="549" y="-201.2" font-family="Arial" font-size="11.00" fill="#101828">texto + ordem + cobertura</text>
</g>
<!-- pipeline&#45;&gt;diff -->
<g id="edge13" class="edge">
<title>pipeline&#45;&gt;diff</title>
<path fill="none" stroke="#667085" stroke-width="1.2" d="M959.98,-305C811.96,-305 612,-305 612,-305 612,-305 612,-244.84 612,-244.84"/>
<polygon fill="#667085" stroke="#667085" stroke-width="1.2" points="614.63,-244.84 612,-237.34 609.38,-244.84 614.63,-244.84"/>
</g>
<!-- stg -->
<g id="node11" class="node">
<title>stg</title>
<path fill="#fff5cc" stroke="#f59e0b" stroke-width="1.2" d="M2306.24,-230.11C2306.24,-230.11 2241.3,-216.89 2241.3,-216.89 2235.42,-215.7 2235.42,-213.3 2241.3,-212.11 2241.3,-212.11 2306.24,-198.89 2306.24,-198.89 2312.12,-197.7 2323.88,-197.7 2329.76,-198.89 2329.76,-198.89 2394.7,-212.11 2394.7,-212.11 2400.58,-213.3 2400.58,-215.7 2394.7,-216.89 2394.7,-216.89 2329.76,-230.11 2329.76,-230.11 2323.88,-231.3 2312.12,-231.3 2306.24,-230.11"/>
<text text-anchor="middle" x="2318" y="-211.7" font-family="Arial" font-size="11.00" fill="#101828">Estágio falhou?</text>
</g>
<!-- pipeline&#45;&gt;stg -->
<g id="edge18" class="edge">
<title>pipeline&#45;&gt;stg</title>
<path fill="none" stroke="#667085" stroke-width="1.2" d="M1272.22,-323C1597.59,-323 2318,-323 2318,-323 2318,-323 2318,-240.41 2318,-240.41"/>
<polygon fill="#667085" stroke="#667085" stroke-width="1.2" points="2320.63,-240.41 2318,-232.91 2315.38,-240.41 2320.63,-240.41"/>
</g>
<!-- report -->
<g id="node9" class="node">
<title>report</title>
<path fill="#f1ecff" stroke="#7c5cfc" stroke-width="1.2" d="M690,-135.5C690,-135.5 476,-135.5 476,-135.5 470,-135.5 464,-129.5 464,-123.5 464,-123.5 464,-111.5 464,-111.5 464,-105.5 470,-99.5 476,-99.5 476,-99.5 690,-99.5 690,-99.5 696,-99.5 702,-105.5 702,-111.5 702,-111.5 702,-123.5 702,-123.5 702,-129.5 696,-135.5 690,-135.5"/>
<text text-anchor="start" x="539" y="-120.7" font-family="Arial" font-weight="bold" font-size="11.00" fill="#101828">Evidence Report</text>
<text text-anchor="start" x="473" y="-109.7" font-family="Arial" font-size="11.00" fill="#101828">reasoning facts e estratégia por página/região</text>
</g>
<!-- strategy&#45;&gt;report -->
<g id="edge6" class="edge">
<title>strategy&#45;&gt;report</title>
<path fill="none" stroke="#667085" stroke-width="1.2" d="M1429,-196.16C1429,-167.92 1429,-117 1429,-117 1429,-117 709.92,-117 709.92,-117"/>
<polygon fill="#667085" stroke="#667085" stroke-width="1.2" points="709.92,-114.38 702.42,-117 709.92,-119.63 709.92,-114.38"/>
</g>
<!-- reasons&#45;&gt;report -->
<g id="edge7" class="edge">
<title>reasons&#45;&gt;report</title>
<path fill="none" stroke="#667085" stroke-width="1.2" d="M1763,-196.47C1763,-166.82 1763,-111 1763,-111 1763,-111 709.59,-111 709.59,-111"/>
<polygon fill="#667085" stroke="#667085" stroke-width="1.2" points="709.59,-108.38 702.09,-111 709.59,-113.63 709.59,-108.38"/>
</g>
<!-- conflicts&#45;&gt;report -->
<g id="edge8" class="edge">
<title>conflicts&#45;&gt;report</title>
<path fill="none" stroke="#667085" stroke-width="1.2" d="M2063,-196.42C2063,-165.32 2063,-105 2063,-105 2063,-105 709.74,-105 709.74,-105"/>
<polygon fill="#667085" stroke="#667085" stroke-width="1.2" points="709.74,-102.38 702.24,-105 709.74,-107.63 709.74,-102.38"/>
</g>
<!-- timings&#45;&gt;report -->
<g id="edge9" class="edge">
<title>timings&#45;&gt;report</title>
<path fill="none" stroke="#667085" stroke-width="1.2" d="M849,-196.37C849,-171.27 849,-129 849,-129 849,-129 709.88,-129 709.88,-129"/>
<polygon fill="#667085" stroke="#667085" stroke-width="1.2" points="709.88,-126.38 702.38,-129 709.88,-131.63 709.88,-126.38"/>
</g>
<!-- failures&#45;&gt;report -->
<g id="edge10" class="edge">
<title>failures&#45;&gt;report</title>
<path fill="none" stroke="#667085" stroke-width="1.2" d="M1116,-196.42C1116,-169.76 1116,-123 1116,-123 1116,-123 709.78,-123 709.78,-123"/>
<polygon fill="#667085" stroke="#667085" stroke-width="1.2" points="709.78,-120.38 702.28,-123 709.78,-125.63 709.78,-120.38"/>
</g>
<!-- alt -->
<g id="node12" class="node">
<title>alt</title>
<path fill="#fff3de" stroke="#f59e0b" stroke-width="1.2" d="M2407,-140C2407,-140 2229,-140 2229,-140 2223,-140 2217,-134 2217,-128 2217,-128 2217,-107 2217,-107 2217,-101 2223,-95 2229,-95 2229,-95 2407,-95 2407,-95 2413,-95 2419,-101 2419,-107 2419,-107 2419,-128 2419,-128 2419,-134 2413,-140 2407,-140"/>
<text text-anchor="start" x="2245" y="-126.2" font-family="Arial" font-weight="bold" font-size="11.00" fill="#101828">Tentar estratégia alternativa</text>
<text text-anchor="start" x="2250" y="-115.2" font-family="Arial" font-size="11.00" fill="#101828">ex.: layout fail → native path</text>
<text text-anchor="start" x="2226" y="-104.2" font-family="Arial" font-size="11.00" fill="#101828">OCR fail → preserve native + warning</text>
</g>
<!-- stg&#45;&gt;alt -->
<g id="edge14" class="edge">
<title>stg&#45;&gt;alt</title>
<path fill="none" stroke="#667085" stroke-width="1.2" d="M2318,-196.26C2318,-196.26 2318,-147.6 2318,-147.6"/>
<polygon fill="#667085" stroke="#667085" stroke-width="1.2" points="2320.63,-147.6 2318,-140.1 2315.38,-147.6 2320.63,-147.6"/>
<text text-anchor="middle" x="2341" y="-163.4" font-family="Arial" font-size="9.50" fill="#667085">há fallback</text>
</g>
<!-- pagefail -->
<g id="node13" class="node">
<title>pagefail</title>
<path fill="#fdecec" stroke="#d9534f" stroke-width="1.2" d="M2675,-135.5C2675,-135.5 2461,-135.5 2461,-135.5 2455,-135.5 2449,-129.5 2449,-123.5 2449,-123.5 2449,-111.5 2449,-111.5 2449,-105.5 2455,-99.5 2461,-99.5 2461,-99.5 2675,-99.5 2675,-99.5 2681,-99.5 2687,-105.5 2687,-111.5 2687,-111.5 2687,-123.5 2687,-123.5 2687,-129.5 2681,-135.5 2675,-135.5"/>
<text text-anchor="start" x="2480.5" y="-120.7" font-family="Arial" font-weight="bold" font-size="11.00" fill="#101828">Marcar página como failed/partial</text>
<text text-anchor="start" x="2458" y="-109.7" font-family="Arial" font-size="11.00" fill="#101828">não abortar documento inteiro quando seguro</text>
</g>
<!-- stg&#45;&gt;pagefail -->
<g id="edge15" class="edge">
<title>stg&#45;&gt;pagefail</title>
<path fill="none" stroke="#667085" stroke-width="1.2" d="M2404.04,-214C2476.35,-214 2568,-214 2568,-214 2568,-214 2568,-143.15 2568,-143.15"/>
<polygon fill="#667085" stroke="#667085" stroke-width="1.2" points="2570.63,-143.15 2568,-135.65 2565.38,-143.15 2570.63,-143.15"/>
<text text-anchor="middle" x="2510" y="-163.4" font-family="Arial" font-size="9.50" fill="#667085">sem fallback</text>
</g>
<!-- result -->
<g id="node14" class="node">
<title>result</title>
<path fill="#edf3f8" stroke="#16324f" stroke-width="1.2" d="M2658,-52C2658,-52 2478,-52 2478,-52 2472,-52 2466,-46 2466,-40 2466,-40 2466,-28 2466,-28 2466,-22 2472,-16 2478,-16 2478,-16 2658,-16 2658,-16 2664,-16 2670,-22 2670,-28 2670,-28 2670,-40 2670,-40 2670,-46 2664,-52 2658,-52"/>
<text text-anchor="start" x="2475" y="-37.2" font-family="Arial" font-weight="bold" font-size="11.00" fill="#101828">StructuredDocument + Diagnostics</text>
<text text-anchor="start" x="2488" y="-26.2" font-family="Arial" font-size="11.00" fill="#101828">sucesso, parcial ou falha explícita</text>
</g>
<!-- alt&#45;&gt;result -->
<g id="edge16" class="edge">
<title>alt&#45;&gt;result</title>
<path fill="none" stroke="#667085" stroke-width="1.2" d="M2318,-94.68C2318,-69.96 2318,-34 2318,-34 2318,-34 2458.45,-34 2458.45,-34"/>
<polygon fill="#667085" stroke="#667085" stroke-width="1.2" points="2458.45,-36.63 2465.95,-34 2458.45,-31.38 2458.45,-36.63"/>
</g>
<!-- pagefail&#45;&gt;result -->
<g id="edge17" class="edge">
<title>pagefail&#45;&gt;result</title>
<path fill="none" stroke="#667085" stroke-width="1.2" d="M2568,-99.38C2568,-99.38 2568,-59.58 2568,-59.58"/>
<polygon fill="#667085" stroke="#667085" stroke-width="1.2" points="2570.63,-59.58 2568,-52.08 2565.38,-59.58 2570.63,-59.58"/>
</g>
<!-- note -->
<g id="node15" class="node">
<title>note</title>
<polygon fill="#fff5cc" stroke="#f59e0b" stroke-width="1.2" points="3098.5,-140 2717.5,-140 2717.5,-95 3104.5,-95 3104.5,-134 3098.5,-140"/>
<polyline fill="none" stroke="#f59e0b" stroke-width="1.2" points="3098.5,-140 3098.5,-134 "/>
<polyline fill="none" stroke="#f59e0b" stroke-width="1.2" points="3104.5,-134 3098.5,-134 "/>
<text text-anchor="start" x="2856.5" y="-126.2" font-family="Arial" font-weight="bold" font-size="11.00" fill="#101828">Objetivo operacional</text>
<text text-anchor="start" x="2740" y="-115.2" font-family="Arial" font-size="11.00" fill="#101828">Nenhuma página problemática deve virar “texto vazio” silenciosamente.</text>
<text text-anchor="start" x="2726.5" y="-104.2" font-family="Arial" font-size="11.00" fill="#101828">O consumidor precisa distinguir documento vazio de recuperação que falhou.</text>
</g>
<!-- note&#45;&gt;result -->
<g id="edge19" class="edge">
<title>note&#45;&gt;result</title>
<path fill="none" stroke="#667085" stroke-width="1.2" stroke-dasharray="1,5" d="M2911,-94.68C2911,-69.96 2911,-34 2911,-34 2911,-34 2771.52,-34 2670.45,-34"/>
</g>
</g>
</svg>
